<svg width="970" height="184" viewBox="0 0 970 184" fill="none" xmlns="http://www.w3.org/2000/svg">
  <path d="M254.119 146.039C251.4 146.039 249.2 145.239 247.52 143.638C245.84 141.958 245 139.756 245 137.035V62H282.558C289.838 62 295.677 63.7608 300.077 67.2825C304.557 70.7241 306.797 75.3263 306.797 81.089V87.3319C306.797 90.2132 306.117 92.9345 304.757 95.4957C303.477 98.0569 301.637 100.138 299.237 101.739V101.859C303.077 102.979 306.157 105.06 308.476 108.102C310.876 111.063 312.076 114.505 312.076 118.426V124.429C312.076 130.992 309.876 136.235 305.477 140.157C301.157 144.079 295.277 146.039 287.838 146.039H254.119ZM284.238 98.8573C287.598 98.8573 290.277 97.8168 292.277 95.7358C294.357 93.5748 295.397 90.7335 295.397 87.2118V81.6892C295.397 78.8079 294.197 76.4868 291.797 74.726C289.398 72.9651 286.278 72.0847 282.438 72.0847H256.399V98.8573H284.238ZM286.638 135.955C290.957 135.955 294.357 134.874 296.837 132.713C299.397 130.552 300.677 127.671 300.677 124.069V118.426C300.677 115.465 299.597 113.064 297.437 111.223C295.277 109.382 292.437 108.462 288.918 108.462H256.399V135.955H286.638Z" fill="black"/>
  <path d="M339.235 147C333.395 147 328.675 145.039 325.076 141.117C321.556 137.195 319.796 132.033 319.796 125.63V86.1315H330.955V125.87C330.955 129.232 331.795 131.953 333.475 134.034C335.155 136.115 337.355 137.155 340.075 137.155H347.274C350.634 137.155 353.714 135.795 356.514 133.073C359.314 130.352 361.154 126.911 362.034 122.749V86.1315H373.193V146.04H362.634V137.396C360.714 140.197 358.314 142.518 355.434 144.359C352.554 146.12 349.714 147 346.914 147H339.235Z" fill="black"/>
  <path d="M385.513 86.1312H396.192V94.8953C397.792 92.2541 400.112 90.0931 403.152 88.4123C406.272 86.7315 409.511 85.8911 412.871 85.8911H419.111V95.8558H412.871C407.991 95.8558 404.072 97.3765 401.112 100.418C398.152 103.379 396.672 107.301 396.672 112.183V146.039H385.513V86.1312Z" fill="black"/>
  <path d="M425.511 86.1312H436.19V94.4151C437.95 91.6938 440.27 89.4928 443.15 87.812C446.11 86.0512 449.029 85.1708 451.909 85.1708H459.829C465.589 85.1708 470.228 87.0917 473.748 90.9335C477.348 94.7753 479.148 99.8177 479.148 106.061V146.039H467.988V106.061C467.988 102.779 467.148 100.138 465.469 98.1369C463.789 96.0559 461.589 95.0154 458.869 95.0154H451.429C447.989 95.0154 444.87 96.336 442.07 98.9773C439.27 101.618 437.47 105.06 436.67 109.302V146.039H425.511V86.1312Z" fill="black"/>
  <path d="M514.864 146.039C508.305 146.039 503.545 144.599 500.585 141.717C497.705 138.836 496.265 134.194 496.265 127.791V95.8559H485.706V86.1313H496.385V68.0028H507.425V86.1313H523.024V95.8559H507.425V127.551C507.425 130.672 508.025 132.913 509.225 134.274C510.505 135.635 512.545 136.315 515.344 136.315H523.024V146.039H514.864Z" fill="black"/>
  <path d="M567.982 62H625.699V72.0847H579.382V100.058H621.259V110.143H579.382V146.039H567.982V62Z" fill="black"/>
  <path d="M642.299 78.2072C639.979 78.2072 638.099 77.5269 636.659 76.1662C635.219 74.7255 634.499 72.8847 634.499 70.6436C634.499 68.4026 635.219 66.6017 636.659 65.2411C638.099 63.8004 639.979 63.0801 642.299 63.0801C644.619 63.0801 646.459 63.8004 647.819 65.2411C649.259 66.6017 649.979 68.4026 649.979 70.6436C649.979 72.8847 649.259 74.7255 647.819 76.1662C646.459 77.5269 644.619 78.2072 642.299 78.2072ZM636.659 86.1309H647.819V146.039H636.659V86.1309Z" fill="black"/>
  <path d="M661.497 86.1312H672.176V94.4151C673.936 91.6938 676.256 89.4928 679.136 87.812C682.096 86.0512 685.016 85.1708 687.896 85.1708H695.815C701.575 85.1708 706.215 87.0917 709.734 90.9335C713.334 94.7753 715.134 99.8177 715.134 106.061V146.039H703.975V106.061C703.975 102.779 703.135 100.138 701.455 98.1369C699.775 96.0559 697.575 95.0154 694.855 95.0154H687.416C683.976 95.0154 680.856 96.336 678.056 98.9773C675.256 101.618 673.456 105.06 672.656 109.302V146.039H661.497V86.1312Z" fill="black"/>
  <path d="M744.373 147C738.373 147 733.574 145.479 729.974 142.438C726.374 139.316 724.574 135.194 724.574 130.072V126.11C724.574 121.068 726.454 117.026 730.214 113.984C733.974 110.863 738.893 109.302 744.973 109.302H752.533C754.933 109.302 757.492 109.662 760.212 110.383C762.932 111.103 765.252 112.103 767.172 113.384V104.62C767.172 101.659 766.252 99.2974 764.412 97.5366C762.572 95.6957 760.172 94.7753 757.212 94.7753H747.373C744.333 94.7753 741.893 95.4956 740.053 96.9363C738.213 98.377 737.294 100.258 737.294 102.579H726.254C726.254 97.3765 728.174 93.1745 732.014 89.973C735.934 86.7715 741.053 85.1708 747.373 85.1708H757.212C763.532 85.1708 768.612 86.9716 772.452 90.5733C776.291 94.095 778.211 98.7772 778.211 104.62V146.039H767.772V137.996C765.932 140.717 763.532 142.918 760.572 144.599C757.612 146.199 754.613 147 751.573 147H744.373ZM752.173 137.755C755.692 137.755 758.812 136.755 761.532 134.754C764.252 132.673 766.132 129.912 767.172 126.47V122.868C765.652 121.508 763.572 120.427 760.932 119.627C758.292 118.827 755.573 118.426 752.773 118.426H745.093C742.293 118.426 740.013 119.147 738.253 120.587C736.494 122.028 735.614 123.949 735.614 126.35V129.952C735.614 132.353 736.454 134.274 738.133 135.714C739.893 137.075 742.213 137.755 745.093 137.755H752.173Z" fill="black"/>
  <path d="M789.49 86.1312H800.17V94.4151C801.93 91.6938 804.249 89.4928 807.129 87.812C810.089 86.0512 813.009 85.1708 815.889 85.1708H823.808C829.568 85.1708 834.208 87.0917 837.728 90.9335C841.327 94.7753 843.127 99.8177 843.127 106.061V146.039H831.968V106.061C831.968 102.779 831.128 100.138 829.448 98.1369C827.768 96.0559 825.568 95.0154 822.848 95.0154H815.409C811.969 95.0154 808.849 96.336 806.049 98.9773C803.249 101.618 801.45 105.06 800.65 109.302V146.039H789.49V86.1312Z" fill="black"/>
  <path d="M876.125 147C869.245 147 863.685 144.959 859.446 140.877C855.206 136.715 853.086 131.272 853.086 124.549V108.462C853.086 101.418 855.166 95.7758 859.326 91.5338C863.565 87.2918 869.125 85.1708 876.005 85.1708H885.724C892.284 85.1708 897.563 87.0116 901.563 90.6934C905.563 94.3751 907.563 99.2574 907.563 105.34H896.524C896.524 102.219 895.524 99.7376 893.524 97.8967C891.604 95.9758 889.004 95.0154 885.724 95.0154H876.125C872.605 95.0154 869.725 96.296 867.485 98.8572C865.325 101.338 864.245 104.66 864.245 108.822V124.189C864.245 128.111 865.365 131.272 867.605 133.674C869.845 135.995 872.725 137.155 876.245 137.155H885.844C889.204 137.155 891.884 135.995 893.884 133.674C895.964 131.272 897.004 128.111 897.004 124.189H908.043C908.043 130.992 906.003 136.515 901.923 140.757C897.843 144.919 892.484 147 885.844 147H876.125Z" fill="black"/>
  <path d="M937.482 147C930.442 147 924.762 144.999 920.443 140.997C916.203 136.915 914.083 131.593 914.083 125.029V108.462C914.083 101.418 916.203 95.7758 920.443 91.5338C924.762 87.2918 930.442 85.1708 937.482 85.1708H947.321C954.121 85.1708 959.6 87.2518 963.76 91.4137C967.92 95.5757 970 101.098 970 107.981V119.267H925.242V125.029C925.242 128.711 926.362 131.673 928.602 133.914C930.842 136.155 933.802 137.275 937.482 137.275H946.721C950.321 137.275 953.241 136.355 955.481 134.514C957.721 132.593 958.841 130.072 958.841 126.95H969.76C969.76 132.953 967.64 137.795 963.4 141.477C959.161 145.159 953.561 147 946.601 147H937.482ZM958.841 110.383V107.981C958.841 103.98 957.761 100.778 955.601 98.377C953.521 95.9759 950.761 94.7753 947.321 94.7753H937.482C933.802 94.7753 930.842 96.0559 928.602 98.6171C926.362 101.098 925.242 104.42 925.242 108.582V110.383H958.841Z" fill="black"/>
  <path d="M81 160.25C93 188.169 140 186.333 143.5 180.314C141.1 173.819 131.5 164.553 127 160.25C112 166.323 96.5 172.118 81 160.25Z" fill="url(#paint0_linear)"/>
  <path d="M196 86.0233C191.2 78.0036 177.5 67.9595 165.731 61.6072C127.304 76.4649 98.3706 80.0613 71.291 78.5926C90.5 82.5055 123.5 93.5403 147.24 113.694C173.133 105.528 190.796 94.4116 196 86.0233Z" fill="url(#paint1_linear)"/>
  <path d="M225 33.8522C189.5 1.61584 75 -15.4463 0 18.8048C96 24.8492 178 58.824 196 86.0234L225 33.8522Z" fill="url(#paint2_linear)"/>
  <path d="M168 135.171C143 101.928 96 76.5012 29 72.9754L56 124.137C102 131.66 137.5 167.273 143.5 180.314L168 135.171Z" fill="url(#paint3_linear)"/>
  <defs>
    <linearGradient id="paint0_linear" x1="126.088" y1="81.334" x2="126.088" y2="181.04" gradientUnits="userSpaceOnUse">
      <stop stop-color="#7A0025"/>
      <stop offset="1" stop-color="#780033"/>
    </linearGradient>
    <linearGradient id="paint1_linear" x1="126.088" y1="81.334" x2="126.088" y2="181.04" gradientUnits="userSpaceOnUse">
      <stop stop-color="#7A0025"/>
      <stop offset="1" stop-color="#780033"/>
    </linearGradient>
    <linearGradient id="paint2_linear" x1="109.687" y1="6.87524" x2="109.687" y2="215.642" gradientUnits="userSpaceOnUse">
      <stop stop-color="#FF004D"/>
      <stop offset="1" stop-color="#77103C"/>
    </linearGradient>
    <linearGradient id="paint3_linear" x1="109.687" y1="6.87524" x2="109.687" y2="215.642" gradientUnits="userSpaceOnUse">
      <stop stop-color="#FF004D"/>
      <stop offset="1" stop-color="#77103C"/>
    </linearGradient>
  </defs>
</svg>